# xmcd
#
# Track frame offsets:
#	175
#	7700
#	19017
#	26225
#	37862
#	47675
#	60887
#	71705
#	83652
#	93960
#	104825
#	113670
#	127225
#	135962
#	146070
#	154312
#	165605
#	174352
#	183167
#	194707
#
# Disc length: 2738 seconds
#
# Revision: 0
# Processed by: cddbd v1.4PL0 Copyright (c) Steve Scherf et al.
# Submitted via: dBpowerAMP V4.0
#
DISCID=050ab014
DTITLE=Lil. Son Jackson - Blues Come to Texas
DYEAR=1900
DGENRE=Blues
TTITLE0=Blues Come to Texas
TTITLE1=Cairo Blues
TTITLE2=Ticket Agent
TTITLE3=Louise Blues
TTITLE4=Sugar Mama
TTITLE5=The Girl I Love
TTITLE6=Santa Fe Blues
TTITLE7=Turn Your Lamp Down Low
TTITLE8=Groundhog Blues
TTITLE9=Gambler Blues
TTITLE10=Charley Cherry (Take 1)
TTITLE11=Charley Cherry (Take 2)
TTITLE12=West Dallas Blues
TTITLE13=Rollin' Mill Went Down
TTITLE14=Red River Blues
TTITLE15=Johnnie Mae
TTITLE16=Buck Dance
TTITLE17=I Walked From Dallas
TTITLE18=Rock Me
TTITLE19=Roberta Blues
EXTD=
EXTT0=
EXTT1=
EXTT2=
EXTT3=
EXTT4=
EXTT5=
EXTT6=
EXTT7=
EXTT8=
EXTT9=
EXTT10=
EXTT11=
EXTT12=
EXTT13=
EXTT14=
EXTT15=
EXTT16=
EXTT17=
EXTT18=
EXTT19=
PLAYORDER=
